# xmcd
#
# Track frame offsets:
#	150
#	17787
#	34292
#	57575
#	78692
#	97357
#	112342
#	126472
#	145667
#	163267
#	179765
#	203075
#	224222
#	242860
#	257900
#	272017
#
# Disc length: 3885 seconds
#
# Revision: 1
# Processed by: cddbd v1.5.2PL0 Copyright (c) Steve Scherf et al.
# Submitted via: audiograbber 1.83.01
#
DISCID=120f2b10
DTITLE=Various Artist - SC3186
DYEAR=1900
DGENRE=Country
TTITLE0=Wade Hayes 1 Up notth (down south, back east out west)
TTITLE1=Rebecca Lynn Howard 2 Out here in the water
TTITLE2=Alan Jackson 3 The blues man
TTITLE3=Reba McEntire 4 I'll be
TTITLE4=Paul Brandt 5 that hurts
TTITLE5=Trial triggs 6 The wreckin' crew
TTITLE6=Joe Diffie 7 It's always somethin'
TTITLE7=Keith Urban 8 Your everything [radio]
TTITLE8=Wade Hayes 9 Up notth (down south, back east out west) (vocals)
TTITLE9=Rebecca Lynn Howard 10 Out here in the water (vocals)
TTITLE10=Alan Jackson 11 The blues man (vocals)
TTITLE11=Reba McEntire 12 I'll be (vocals)
TTITLE12=Paul Brandt 13 that hurts (vocals)
TTITLE13=Trial triggs 14 The wreckin' crew (vocals)
TTITLE14=Joe Diffie 15 It's always somethin' (vocals)
TTITLE15=Keith Urban 16 Your everything [radio] (vocals)
EXTD=
EXTT0=
EXTT1=
EXTT2=
EXTT3=
EXTT4=
EXTT5=
EXTT6=
EXTT7=
EXTT8=
EXTT9=
EXTT10=
EXTT11=
EXTT12=
EXTT13=
EXTT14=
EXTT15=
PLAYORDER=
